#!OML:ASF H:\Dans Jumps\Project 1\Capture day 1\Session 1\subject.ASF
:FULLY-SPECIFIED
:DEGREES
184
root 0.529002 16.7802 -14.8428 21.6942 -0.101172 -2.21895
lowerback 12.7507 -0.0427742 -0.464705
upperback 4.93098 -0.0283975 2.80222
thorax -1.97415 -0.0416817 3.18811
lowerneck -17.6868 0.165559 -2.08431
upperneck 11.442 0.818306 -0.537972
head 6.36019 0.253803 0.248659
rclavicle 5.76476e-015 -1.05356e-014
rhumerus -27.4943 -17.6243 -75.2003
rradius 23.5189
rwrist 33.8341
rhand -17.2718 -26.109
rfingers 7.12502
rthumb 8.97306 -55.8982
lclavicle 5.76476e-015 -1.05356e-014
lhumerus -26.7544 4.69345 82.1613
lradius 15.6337
lwrist 2.0168
lhand -23.0344 -3.89476
lfingers 7.12502
lthumb 3.40984 26.0577
rfemur -46.3106 -2.81218 23.3001
rtibia 45.7434
rfoot -28.6558 -10.5737
rtoes -4.29046
lfemur -47.1768 8.14332 -21.639
ltibia 45.4653
lfoot -24.5708 15.2587
ltoes -14.2105
185
root 0.525868 16.7671 -14.8174 21.8218 0.0365372 -2.1989
lowerback 12.9417 -0.0674339 -0.452656
upperback 4.91415 -0.0560938 2.8175
thorax -2.09325 -0.0540752 3.20323
lowerneck -17.6915 0.147983 -2.10454
upperneck 11.2691 0.796789 -0.533402
head 6.30537 0.244749 0.250792
rclavicle 6.36111e-015 -3.57812e-015
rhumerus -27.541 -17.5337 -75.2262
rradius 23.5657
rwrist 33.7316
rhand -17.2394 -26.0596
rfingers 7.12502
rthumb 9.00431 -55.8474
lclavicle 6.36111e-015 -3.57812e-015
lhumerus -26.7813 4.74856 82.1418
lradius 15.645
lwrist 1.98529
lhand -22.977 -3.86584
lfingers 7.12502
lthumb 3.46527 26.0857
rfemur -46.5006 -2.77109 23.2929
rtibia 46.0869
rfoot -29.0134 -10.9152
rtoes -4.00246
lfemur -47.3541 7.75373 -21.5103
ltibia 45.7663
lfoot -24.8274 15.7237
ltoes -14.4395
186
root 0.52223 16.7534 -14.7908 21.9564 0.193113 -2.16774
lowerback 13.1378 -0.0990337 -0.444103
upperback 4.89244 -0.0929515 2.83386
thorax -2.2196 -0.0708893 3.22313
lowerneck -17.7101 0.128445 -2.13131
upperneck 11.0988 0.774304 -0.52654
head 6.25371 0.235075 0.25466
rclavicle 7.35503e-015 9.93923e-016
rhumerus -27.5751 -17.44 -75.2535
rradius 23.6149
rwrist 33.6447
rhand -17.1906 -26.0018
rfingers 7.12502
rthumb 9.05138 -55.7876
lclavicle 7.35503e-015 9.93923e-016
lhumerus -26.7825 4.85281 82.108
lradius 15.6472
lwrist 1.93424
lhand -22.9441 -3.86711
lfingers 7.12502
lthumb 3.49711 26.0839
rfemur -46.6981 -2.72992 23.2759
rtibia 46.4418
rfoot -29.3594 -11.2625
rtoes -3.71204
lfemur -47.5391 7.32995 -21.378
ltibia 46.0726
lfoot -25.063 16.1681
ltoes -14.6055
187
root 0.518305 16.7386 -14.7631 22.0996 0.350389 -2.12713
lowerback 13.3307 -0.1295 -0.443477
upperback 4.86725 -0.129229 2.84782
thorax -2.34785 -0.0873669 3.2452
lowerneck -17.737 0.109543 -2.14979
upperneck 10.9299 0.752146 -0.527826
head 6.20399 0.2252 0.254636
rclavicle 9.74045e-015 -4.57205e-015
rhumerus -27.5989 -17.3464 -75.2839
rradius 23.6629
rwrist 33.5564
rhand -17.1522 -25.9554
rfingers 7.12502
rthumb 9.08845 -55.7396
lclavicle 9.74045e-015 -4.57205e-015
lhumerus -26.7623 4.98917 82.063
lradius 15.6509
lwrist 1.89027
lhand -22.9357 -3.88685
lfingers 7.12502
lthumb 3.50523 26.0641
rfemur -46.9102 -2.67908 23.2461
rtibia 46.8113
rfoot -29.6868 -11.6143
rtoes -3.43294
lfemur -47.7347 6.88304 -21.2466
ltibia 46.3876
lfoot -25.2788 16.6027
ltoes -14.6877
188
root 0.514068 16.7229 -14.7345 22.2527 0.510588 -2.0771
lowerback 13.5243 -0.159937 -0.448293
upperback 4.83535 -0.166029 2.85872
thorax -2.48336 -0.103936 3.26757
lowerneck -17.7615 0.0900972 -2.16515
upperneck 10.7575 0.728762 -0.531667
head 6.15282 0.214702 0.253169
rclavicle -3.97569e-015 7.7526e-015
rhumerus -27.6137 -17.2623 -75.3149
rradius 23.7061
rwrist 33.477
rhand -17.1205 -25.9312
rfingers 7.12502
rthumb 9.11904 -55.714
lclavicle -3.97569e-015 7.7526e-015
lhumerus -26.7205 5.16097 82.0048
lradius 15.6482
lwrist 1.86422
lhand -22.9451 -3.89226
lfingers 7.12502
lthumb 3.49611 26.0588
rfemur -47.139 -2.61956 23.204
rtibia 47.1957
rfoot -29.9935 -11.9723
rtoes -3.18453
lfemur -47.9454 6.41707 -21.1188
ltibia 46.7149
lfoot -25.4741 17.0309
ltoes -14.6988
189
root 0.50959 16.706 -14.7049 22.4186 0.669942 -2.02324
lowerback 13.7139 -0.187695 -0.454139
upperback 4.79627 -0.199375 2.86761
thorax -2.62445 -0.11862 3.28818
lowerneck -17.7857 0.071421 -2.17148
upperneck 10.5841 0.705593 -0.544977
head 6.10139 0.203909 0.247254
rclavicle 2.78299e-015 -1.33186e-014
rhumerus -27.6215 -17.1873 -75.3459
rradius 23.7417
rwrist 33.3947
rhand -17.114 -25.9264
rfingers 7.12502
rthumb 9.12532 -55.709
lclavicle 2.78299e-015 -1.33186e-014
lhumerus -26.6585 5.37024 81.9341
lradius 15.6385
lwrist 1.84864
lhand -22.9484 -3.86351
lfingers 7.12502
lthumb 3.4929 26.0876
rfemur -47.3885 -2.54493 23.153
rtibia 47.5938
rfoot -30.2817 -12.3266
rtoes -2.94985
lfemur -48.1776 5.93853 -20.991
ltibia 47.0587
lfoot -25.6488 17.463
ltoes -14.7066
